Coordinates
version=1
nRows=14
nColumns=33
inDegrees=yes

Units are S.I. units (second, meters, Newtons, ...)
Angles are in degrees.

endheader
time	ground_thorax_rot_x	ground_thorax_rot_y	ground_thorax_rot_z	ground_thorax_tx	ground_thorax_ty	ground_thorax_tz	clav_prot_r	clav_elev_r	scapula_abduction_r	scapula_elevation_r	scapula_upward_rot_r	scapula_winging_r	shoulder_elv_r	plane_of_elev_r	axial_rot_r	elbow_flexion_r	pro_sup_r	wrist_flex_r	wrist_dev_r	clav_prot_l	clav_elev_l	scapula_abduction_l	scapula_elevation_l	scapula_upward_rot_l	scapula_winging_l	shoulder_elv_l	plane_of_elev_l	axial_rot_l	elbow_flexion_l	pro_sup_l	wrist_flex_l	wrist_dev_l
      3.65000000	     32.08598148	     25.65116377	     32.82098607	    -62.95547632	    853.79281958	    -39.76465492	     -1.41325790	     39.40894374	     40.19213760	     45.00000000	     20.40137128	   2036.19904442	    979.82439368	    143.09686382	   -179.99999979	   1063.78386964	     60.04798332	     23.78043411	     16.27744379	     -6.01183596	    -45.00000000	    -40.50941046	     45.00000000	    -45.00000000	   1904.76213345	  -2801.47973260	     26.80545604	     32.18286826	   2150.35997454	     43.45211770	     12.29284417	    -23.45876338
      3.66000000	     31.99955074	     25.66482402	     32.93669036	    -60.71621891	    853.73576772	    -39.81992757	     -1.29179311	     39.31150052	     40.32952827	     45.00000000	     20.92664453	   2035.95851545	    979.70858885	    142.90639863	   -179.99999979	   1063.67879391	     59.84818491	     23.63684979	     16.41911598	     -6.24262272	    -45.00000000	    -40.55200700	     45.00000000	    -45.00000000	   1904.48937022	  -2801.45398651	     26.97386723	     33.16466483	   2150.31848724	     43.15323706	     12.45080606	    -23.31508935
      3.67000000	     31.89705372	     25.70481003	     33.11773734	    -58.34689215	    853.61497862	    -39.89016454	     -1.38038195	     39.27706168	     40.51446124	     45.00000000	     21.34740064	   2035.83092476	    979.73132577	    142.86185900	   -179.99999979	   1063.65014981	     59.66573449	     23.54795986	     16.55231033	     -6.25099501	    -45.00000000	    -40.55458505	     45.00000000	    -45.00000000	   1904.29741249	  -2801.40353003	     27.20672246	     34.09743970	   2150.33212579	     42.82801077	     12.65229403	    -23.20489827
      3.68000000	     31.75362693	     25.74548510	     33.32839183	    -55.84337261	    853.42712954	    -39.97452437	     -1.55085162	     39.23665741	     40.66434514	     45.00000000	     21.82209341	   2035.73050671	    979.70583125	    142.87740165	   -179.99999979	   1063.63238438	     59.52158083	     23.50248892	     16.70708083	     -6.19309252	    -45.00000000	    -40.54317758	     45.00000000	    -45.00000000	   1904.11809596	  -2801.33566162	     27.45110966	     35.02334967	   2150.39116871	     42.53482772	     12.85921376	    -23.07678258
      3.69000000	     31.67891302	     25.74479938	     33.52579918	    -53.21537364	    853.17050662	    -40.07248627	     -1.39276934	     39.18600235	     40.94682576	     45.00000000	     22.30722051	   2035.45265112	    979.59694457	    142.71914826	   -179.99999979	   1063.61527701	     59.41687725	     23.33007083	     16.77670502	     -6.51535507	    -45.00000000	    -40.63029960	     45.00000000	    -45.00000000	   1903.83710733	  -2801.31053397	     27.52481334	     36.16803418	   2150.41162159	     42.30653589	     13.02862337	    -22.86827589
      3.70000000	     31.59096277	     25.80626309	     33.74748741	    -50.46663381	    852.84307219	    -40.18410473	     -1.54485069	     39.14124731	     41.12918972	     45.00000000	     22.77732565	   2035.33243540	    979.55096965	    142.66057649	   -179.99999979	   1063.58940511	     59.35982830	     23.28028671	     16.92691676	     -6.47553582	    -45.00000000	    -40.62179790	     45.00000000	    -45.00000000	   1903.61555658	  -2801.29056438	     27.76265435	     37.13323675	   2150.39696706	     42.08757695	     13.26698413	    -22.69495450
      3.71000000	     31.47269523	     25.90609367	     33.99588667	    -47.60120769	    852.44043179	    -40.30928605	     -1.60093406	     39.13055129	     41.29795404	     45.00000000	     23.29172484	   2035.16837260	    979.51069962	    142.60667627	   -179.99999979	   1063.61456533	     59.33439580	     23.12231292	     16.97249469	     -6.67573783	    -45.00000000	    -40.67002946	     45.00000000	    -45.00000000	   1903.30944156	  -2801.22983293	     27.88897302	     38.29809603	   2150.44535968	     41.91122890	     13.46668160	    -22.45127706
      3.72000000	     31.38948324	     25.93940174	     34.25944366	    -44.63058856	    851.95671451	    -40.44679390	     -1.61976862	     39.10912298	     41.57244305	     45.00000000	     23.74241199	   2034.95973971	    979.41367747	    142.54257759	   -179.99999979	   1063.66064278	     59.35252213	     23.02916309	     17.04059025	     -6.83276521	    -45.00000000	    -40.63783656	     45.00000000	    -45.00000000	   1903.04647323	  -2801.16121651	     28.05064884	     39.44146495	   2150.42585961	     41.80601712	     13.67667548	    -22.19973737
      3.73000000	     31.29361327	     26.04994382	     34.53173540	    -41.55966485	    851.38352217	    -40.59387552	     -2.18124499	     39.05720058	     41.68209201	     45.00000000	     24.26061890	   2034.93980529	    979.39067223	    142.57420231	   -179.99999979	   1063.64258082	     59.42187362	     23.07811946	     17.23569105	     -6.42667097	    -45.00000000	    -40.61278195	     45.00000000	    -45.00000000	   1902.89930519	  -2801.23455799	     28.38455192	     40.11014148	   2150.39467670	     41.73917493	     13.95391891	    -22.02644034
      3.74000000	     31.19722278	     26.11725781	     34.81835589	    -38.39528372	    850.71019331	    -40.74678410	     -1.69453556	     39.08822559	     42.05768222	     45.00000000	     24.45569238	   2034.55483329	    979.15062672	    142.42397103	   -179.99999979	   1063.73205793	     59.51676069	     22.89668135	     17.20365425	     -7.03739302	    -45.00000000	    -40.60229207	     45.00000000	    -45.00000000	   1902.51442690	  -2801.09842480	     28.39898163	     41.45456546	   2150.43144592	     41.72585619	     14.06273511	    -21.68201683
      3.75000000	     31.07328142	     26.28980288	     35.15790571	    -35.14318529	    849.92971167	    -40.89891644	     -2.31648601	     39.05540952	     42.10034126	     45.00000000	     24.75975251	   2034.55858914	    979.01619726	    142.43566299	   -179.99999979	   1063.71466467	     59.64183987	     22.97202231	     17.40456909	     -6.54850847	    -45.00000000	    -40.55925995	     45.00000000	    -45.00000000	   1902.37208180	  -2801.20626746	     28.74194093	     41.92573688	   2150.40696255	     41.78299657	     14.30992542	    -21.48031524
      3.76000000	     31.09409128	     26.31230626	     35.38463820	    -31.80589695	    849.03009142	    -41.04567113	     -1.78617825	     39.06902071	     42.52919482	     45.00000000	     25.14943340	   2034.10190540	    978.83400699	    142.24903659	   -179.99999979	   1063.76024068	     59.80196913	     22.68923424	     17.32365101	     -7.33324155	    -45.00000000	    -40.42661400	     45.00000000	    -45.00000000	   1901.92061544	  -2801.06293991	     28.73193795	     43.45099758	   2150.31676805	     41.88777655	     14.39924487	    -21.09276530
      3.77000000	     30.91467612	     26.41970697	     35.71691096	    -28.38552018	    848.00249480	    -41.18144844	     -1.87785862	     39.10309798	     42.79799179	     45.00000000	     25.39539694	   2033.84214171	    978.59901725	    142.24000709	   -179.99999979	   1063.85930896	     59.98921065	     22.59323290	     17.34019373	     -7.46130539	    -45.00000000	    -40.41283423	     45.00000000	    -45.00000000	   1901.63720488	  -2800.98690412	     28.86012742	     44.32522286	   2150.35182530	     41.95709149	     14.50869726	    -20.78691019
      3.78000000	     30.82997592	     26.55678230	     36.03927318	    -24.88244028	    846.83595180	    -41.30318881	     -2.13752577	     39.04973746	     42.92349823	     45.00000000	     25.55899131	   2033.60535027	    978.25747913	    142.09119801	   -179.99999979	   1063.83607974	     60.22018748	     22.59894624	     17.50127471	     -7.29838539	    -45.00000000	    -40.45684351	     45.00000000	    -45.00000000	   1901.41627378	  -2801.20920086	     28.99260688	     44.77845134	   2150.40431836	     42.05841226	     14.61551935	    -20.53757179
